# Blender v3.1.2 OBJ File: ''
# www.blender.org
mtllib 2.mtl
o Что-то
v -0.356126 6.236933 2.172272
v 0.000000 6.236933 2.201270
v -0.702869 6.236933 2.086041
v 0.000000 6.236933 1.467514
v -1.031093 6.236933 1.944849
v -0.286298 6.236933 1.439316
v -1.332152 6.236933 1.752416
v -0.561593 6.236933 1.355806
v -1.598113 6.236933 1.513812
v -0.815306 6.236933 1.220193
v -1.821967 6.236933 1.235324
v -1.037689 6.236933 1.037689
v -1.997819 6.236933 0.924289
v -1.220193 6.236933 0.815306
v -2.121034 6.236933 0.588902
v -1.355806 6.236933 0.561593
v -2.188367 6.236933 0.237999
v -1.439316 6.236933 0.286298
v -2.198042 6.236933 -0.119174
v -1.467514 6.236933 0.000000
v -2.149806 6.236933 -0.473208
v -1.439316 6.236933 -0.286298
v -2.044929 6.236933 -0.814775
v -1.355806 6.236933 -0.561593
v -1.886175 6.236933 -1.134874
v -1.220193 6.236933 -0.815306
v -1.677725 6.236933 -1.425072
v -1.037689 6.236933 -1.037689
v -1.425072 6.236933 -1.677725
v -0.815306 6.236933 -1.220193
v -1.134874 6.236933 -1.886175
v -0.561593 6.236933 -1.355806
v -0.814775 6.236933 -2.044929
v -0.286298 6.236933 -1.439316
v -0.473208 6.236933 -2.149806
v 0.000000 6.236933 -1.467514
v -0.119174 6.236933 -2.198042
v 0.286298 6.236933 -1.439316
v 0.237999 6.236933 -2.188367
v 0.561593 6.236933 -1.355806
v 0.588902 6.236933 -2.121034
v 0.815306 6.236933 -1.220193
v 0.924289 6.236933 -1.997819
v 1.037689 6.236933 -1.037689
v 1.235324 6.236933 -1.821967
v 1.220193 6.236933 -0.815306
v 1.513812 6.236933 -1.598113
v 1.355806 6.236933 -0.561593
v 1.752416 6.236933 -1.332152
v 1.439316 6.236933 -0.286298
v 1.944849 6.236933 -1.031093
v 1.467514 6.236933 0.000000
v 2.086041 6.236933 -0.702869
v 2.201270 6.236933 0.000000
v 2.172272 6.236933 -0.356126
v 1.439316 0.000000 -0.286298
v 1.467514 0.000000 0.000000
v 1.467514 6.236933 0.000000
v 1.355806 0.000000 -0.561593
v 1.220193 0.000000 -0.815306
v 1.037689 0.000000 -1.037689
v 0.815306 0.000000 -1.220193
v 0.561593 0.000000 -1.355806
v 0.286298 0.000000 -1.439316
v 0.000000 6.236933 -1.467514
v 0.000000 0.000000 -1.467514
v -0.286298 0.000000 -1.439316
v -0.561593 0.000000 -1.355806
v -0.815306 0.000000 -1.220193
v -1.037689 0.000000 -1.037689
v -1.220193 0.000000 -0.815306
v -1.355806 0.000000 -0.561593
v -1.439316 0.000000 -0.286298
v -1.467514 6.236933 0.000000
v -1.467514 0.000000 0.000000
v -1.439316 0.000000 0.286298
v -1.355806 0.000000 0.561593
v -1.220193 0.000000 0.815306
v -1.037689 0.000000 1.037689
v -0.815306 0.000000 1.220193
v -0.561593 0.000000 1.355806
v -0.286298 0.000000 1.439316
v 0.000000 6.236933 1.467514
v 0.000000 0.000000 1.467514
v 2.201270 1.100635 0.000000
v 2.172272 1.100635 -0.356126
v 2.201270 6.236933 0.000000
v 2.086041 1.100635 -0.702869
v 1.944849 1.100635 -1.031093
v 1.752416 1.100635 -1.332152
v 1.513812 1.100635 -1.598113
v 1.235324 1.100635 -1.821967
v 0.924289 1.100635 -1.997819
v 0.588902 1.100635 -2.121034
v 0.237999 1.100635 -2.188367
v -0.119174 1.100635 -2.198042
v -0.473208 1.100635 -2.149806
v -0.814775 1.100635 -2.044929
v -1.134874 1.100635 -1.886175
v -1.425072 1.100635 -1.677725
v -1.677725 1.100635 -1.425072
v -1.886175 1.100635 -1.134874
v -2.044929 1.100635 -0.814775
v -2.149806 1.100635 -0.473208
v -2.198042 1.100635 -0.119174
v -2.188367 1.100635 0.237999
v -2.121034 1.100635 0.588902
v -1.997819 1.100635 0.924289
v -1.821967 1.100635 1.235324
v -1.598113 1.100635 1.513812
v -1.332152 1.100635 1.752416
v -1.031093 1.100635 1.944849
v -0.702869 1.100635 2.086041
v -0.356126 1.100635 2.172272
v 0.000000 1.100635 2.201270
v 0.000000 6.236933 2.201270
v 6.603811 0.000000 0.000000
v 6.571116 0.000000 -0.344795
v 6.571116 1.100635 -0.344795
v 6.603811 1.100635 0.000000
v 6.474195 0.000000 -0.677299
v 6.474195 1.100635 -0.677299
v 6.316504 0.000000 -0.985659
v 6.316504 1.100635 -0.985659
v 6.103663 0.000000 -1.258883
v 6.103663 1.100635 -1.258883
v 5.843261 0.000000 -1.487232
v 5.843261 1.100635 -1.487232
v 5.544579 0.000000 -1.662565
v 5.544579 1.100635 -1.662565
v 5.218265 0.000000 -1.778632
v 5.218265 1.100635 -1.778632
v -0.755407 0.000000 3.214334
v -0.380233 0.000000 3.279939
v -0.380233 1.100635 3.279939
v -0.755407 1.100635 3.214334
v 0.000000 0.000000 3.301906
v 0.000000 1.100635 3.301906
v 5.760179 1.100635 -0.181395
v 5.760179 0.000000 -0.181395
v 5.788908 0.000000 0.000000
v 5.788908 1.100635 0.000000
v 5.676801 1.100635 -0.345033
v 5.676801 0.000000 -0.345033
v 5.546936 1.100635 -0.474897
v 5.546936 0.000000 -0.474897
v 5.383298 1.100635 -0.558275
v 5.383298 0.000000 -0.558275
v 5.201902 1.100635 -0.587005
v 5.201902 0.000000 -0.587005
v 5.020508 1.100635 -0.558275
v 5.020508 0.000000 -0.558275
v 4.856870 1.100635 -0.474897
v 4.856870 0.000000 -0.474897
v 4.727005 1.100635 -0.345033
v 4.727005 0.000000 -0.345033
v 4.643628 1.100635 -0.181395
v 4.643628 0.000000 -0.181395
v 4.614897 1.100635 0.000000
v 4.614897 0.000000 0.000000
v 0.000000 0.000000 3.301906
v -5.218265 0.000000 1.778632
v -5.523560 0.000000 1.672204
v -5.805428 0.000000 1.513829
v -6.055113 0.000000 1.308428
v -6.264858 0.000000 1.062382
v -1.467514 0.000000 0.000000
v -6.428149 0.000000 0.783332
v -5.020508 0.000000 0.558275
v -4.856870 0.000000 0.474897
v -4.727005 0.000000 0.345033
v -4.643628 0.000000 0.181395
v -4.614897 0.000000 0.000000
v -4.643628 0.000000 -0.181395
v -4.727005 0.000000 -0.345033
v -4.856870 0.000000 -0.474897
v -5.020508 0.000000 -0.558275
v -5.201902 0.000000 -0.587005
v -5.383298 0.000000 -0.558275
v -5.201902 0.000000 0.587005
v -6.539911 0.000000 0.479950
v -5.383298 0.000000 0.558275
v -6.596674 0.000000 0.161657
v -5.546936 0.000000 0.474897
v -6.596674 0.000000 -0.161657
v -5.676801 0.000000 0.345033
v -6.539911 0.000000 -0.479950
v -5.760179 0.000000 0.181395
v -6.428149 0.000000 -0.783332
v -5.788908 0.000000 0.000000
v -6.264858 0.000000 -1.062382
v -5.760179 0.000000 -0.181395
v -6.055113 0.000000 -1.308428
v -5.676801 0.000000 -0.345033
v -5.805428 0.000000 -1.513829
v -5.546936 0.000000 -0.474897
v -5.523560 0.000000 -1.672204
v -5.218265 0.000000 -1.778632
v -0.755407 0.000000 -3.214334
v 0.000000 0.000000 -1.467514
v -0.253802 0.000000 -3.292137
v 0.253802 0.000000 -3.292137
v 0.755407 0.000000 -3.214334
v 1.467514 0.000000 0.000000
v 4.614897 0.000000 0.000000
v 6.603811 0.000000 0.000000
v 5.788908 0.000000 0.000000
v 0.000000 1.100635 3.301906
v -5.218265 1.100635 1.778632
v -5.523560 1.100635 1.672204
v -5.805428 1.100635 1.513829
v -6.055113 1.100635 1.308428
v -6.264858 1.100635 1.062382
v -6.428149 1.100635 0.783332
v -6.539911 1.100635 0.479950
v -5.383298 1.100635 0.558275
v -6.596674 1.100635 0.161657
v -5.546936 1.100635 0.474897
v -6.596674 1.100635 -0.161657
v -5.676801 1.100635 0.345033
v -6.539911 1.100635 -0.479950
v -5.760179 1.100635 0.181395
v -6.428149 1.100635 -0.783332
v -5.788908 1.100635 0.000000
v -6.264858 1.100635 -1.062382
v -5.760179 1.100635 -0.181395
v -6.055113 1.100635 -1.308428
v -5.676801 1.100635 -0.345033
v -5.805428 1.100635 -1.513829
v -5.546936 1.100635 -0.474897
v -5.523560 1.100635 -1.672204
v -5.383298 1.100635 -0.558275
v -5.218265 1.100635 -1.778632
v -5.201902 1.100635 -0.587005
v -0.755407 1.100635 -3.214334
v -5.020508 1.100635 -0.558275
v -0.253802 1.100635 -3.292137
v -4.856870 1.100635 -0.474897
v 0.253802 1.100635 -3.292137
v -4.727005 1.100635 -0.345033
v 0.755407 1.100635 -3.214334
v -4.643628 1.100635 -0.181395
v 6.603811 1.100635 0.000000
v 5.788908 1.100635 0.000000
v 2.201270 1.100635 0.000000
v 4.614897 1.100635 0.000000
v -4.614897 1.100635 0.000000
v -4.643628 1.100635 0.181395
v -4.727005 1.100635 0.345033
v -4.856870 1.100635 0.474897
v -5.020508 1.100635 0.558275
v -5.201902 1.100635 0.587005
v 6.603811 0.000000 0.000000
v 6.603811 1.100635 0.000000
v 5.788908 1.100635 0.000000
v 5.788908 0.000000 0.000000
v -4.614897 1.100635 0.000000
v -4.614897 0.000000 0.000000
vn 0.0000 1.0000 0.0000
vn -0.9952 0.0000 0.0980
vn -0.9569 0.0000 0.2903
vn -0.8819 0.0000 0.4714
vn -0.7730 0.0000 0.6344
vn -0.6344 0.0000 0.7730
vn -0.4714 0.0000 0.8819
vn -0.2903 0.0000 0.9569
vn -0.0980 0.0000 0.9952
vn 0.0980 0.0000 0.9952
vn 0.2903 0.0000 0.9569
vn 0.4714 0.0000 0.8819
vn 0.6344 0.0000 0.7730
vn 0.7730 0.0000 0.6344
vn 0.8819 0.0000 0.4714
vn 0.9569 0.0000 0.2903
vn 0.9952 0.0000 0.0980
vn 0.9952 0.0000 -0.0980
vn 0.9569 0.0000 -0.2903
vn 0.8819 0.0000 -0.4714
vn 0.7730 0.0000 -0.6344
vn 0.6344 0.0000 -0.7730
vn 0.4714 0.0000 -0.8819
vn 0.2903 0.0000 -0.9569
vn 0.0980 0.0000 -0.9952
vn 0.9967 0.0000 -0.0812
vn 0.9704 0.0000 -0.2413
vn 0.9186 0.0000 -0.3952
vn 0.8426 0.0000 -0.5386
vn 0.7444 0.0000 -0.6678
vn 0.6265 0.0000 -0.7794
vn 0.4922 0.0000 -0.8705
vn 0.3448 0.0000 -0.9387
vn 0.1884 0.0000 -0.9821
vn 0.0271 0.0000 -0.9996
vn -0.1350 0.0000 -0.9908
vn -0.2935 0.0000 -0.9560
vn -0.4443 0.0000 -0.8959
vn -0.5834 0.0000 -0.8122
vn -0.7071 0.0000 -0.7071
vn -0.8122 0.0000 -0.5834
vn -0.8959 0.0000 -0.4443
vn -0.9560 0.0000 -0.2935
vn -0.9908 0.0000 -0.1350
vn -0.9996 0.0000 0.0271
vn -0.9821 0.0000 0.1884
vn -0.9387 0.0000 0.3448
vn -0.8705 0.0000 0.4922
vn -0.7794 0.0000 0.6265
vn -0.6678 0.0000 0.7444
vn -0.5386 0.0000 0.8426
vn -0.3952 0.0000 0.9186
vn -0.2413 0.0000 0.9704
vn -0.0812 0.0000 0.9967
vn 0.9955 0.0000 -0.0944
vn 0.9600 0.0000 -0.2798
vn 0.8903 0.0000 -0.4553
vn 0.7889 0.0000 -0.6145
vn 0.6593 0.0000 -0.7519
vn 0.5062 0.0000 -0.8624
vn 0.3351 0.0000 -0.9422
vn -0.1723 0.0000 0.9851
vn -0.0577 0.0000 0.9983
vn -0.9877 0.0000 0.1564
vn -0.8910 0.0000 0.4540
vn -0.7071 0.0000 0.7071
vn -0.4540 0.0000 0.8910
vn -0.1564 0.0000 0.9877
vn 0.1564 0.0000 0.9877
vn 0.4540 0.0000 0.8910
vn 0.7071 0.0000 0.7071
vn 0.8910 0.0000 0.4540
vn 0.9877 0.0000 0.1564
vn 0.0000 -1.0000 0.0000
vn 0.0000 1.0000 0.0012
vn -0.0000 0.0000 1.0000
vn 1.0000 0.0000 -0.0000
vn 0.3062 0.0000 -0.9520
vn -0.3062 0.0000 0.9520
vn -0.3292 0.0000 -0.9443
vn -0.4898 0.0000 -0.8718
vn -0.6353 0.0000 -0.7723
vn -0.7610 0.0000 -0.6487
vn -0.8631 0.0000 -0.5051
vn -0.9384 0.0000 -0.3457
vn -0.9845 0.0000 -0.1756
vn -1.0000 0.0000 0.0000
vn -0.9845 0.0000 0.1756
vn -0.9384 0.0000 0.3457
vn -0.8631 0.0000 0.5051
vn -0.7610 0.0000 0.6487
vn -0.6353 0.0000 0.7723
vn -0.4898 0.0000 0.8718
vn -0.3292 0.0000 0.9443
vn -0.3062 0.0000 -0.9520
vn 0.1533 0.0000 -0.9882
vn 0.0000 0.0000 -1.0000
vn -0.1533 0.0000 -0.9882
vn 0.9877 0.0000 -0.1564
vn 0.8910 0.0000 -0.4540
vn 0.7071 0.0000 -0.7071
vn 0.4540 0.0000 -0.8910
vn 0.1564 0.0000 -0.9877
vn -0.1564 0.0000 -0.9877
vn -0.4540 0.0000 -0.8910
vn -0.8910 0.0000 -0.4540
vn -0.9877 0.0000 -0.1564
usemtl None
s off
f 1//1 2//1 3//1
f 2//1 4//1 3//1
f 3//1 4//1 5//1
f 4//1 6//1 5//1
f 5//1 6//1 7//1
f 6//1 8//1 7//1
f 7//1 8//1 9//1
f 8//1 10//1 9//1
f 9//1 10//1 11//1
f 10//1 12//1 11//1
f 11//1 12//1 13//1
f 12//1 14//1 13//1
f 13//1 14//1 15//1
f 14//1 16//1 15//1
f 15//1 16//1 17//1
f 16//1 18//1 17//1
f 17//1 18//1 19//1
f 18//1 20//1 19//1
f 19//1 20//1 21//1
f 20//1 22//1 21//1
f 21//1 22//1 23//1
f 22//1 24//1 23//1
f 23//1 24//1 25//1
f 24//1 26//1 25//1
f 25//1 26//1 27//1
f 26//1 28//1 27//1
f 27//1 28//1 29//1
f 28//1 30//1 29//1
f 29//1 30//1 31//1
f 30//1 32//1 31//1
f 31//1 32//1 33//1
f 32//1 34//1 33//1
f 33//1 34//1 35//1
f 34//1 36//1 35//1
f 35//1 36//1 37//1
f 36//1 38//1 37//1
f 37//1 38//1 39//1
f 38//1 40//1 39//1
f 39//1 40//1 41//1
f 40//1 42//1 41//1
f 41//1 42//1 43//1
f 42//1 44//1 43//1
f 43//1 44//1 45//1
f 44//1 46//1 45//1
f 45//1 46//1 47//1
f 46//1 48//1 47//1
f 47//1 48//1 49//1
f 48//1 50//1 49//1
f 49//1 50//1 51//1
f 50//1 52//1 51//1
f 51//1 52//1 53//1
f 52//1 54//1 53//1
f 53//1 54//1 55//1
f 50//2 56//2 57//2
f 58//2 50//2 57//2
f 48//3 59//3 56//3
f 50//3 48//3 56//3
f 46//4 60//4 59//4
f 48//4 46//4 59//4
f 44//5 61//5 60//5
f 46//5 44//5 60//5
f 42//6 62//6 61//6
f 44//6 42//6 61//6
f 40//7 63//7 62//7
f 42//7 40//7 62//7
f 38//8 64//8 63//8
f 40//8 38//8 63//8
f 65//9 66//9 64//9
f 38//9 65//9 64//9
f 34//10 67//10 66//10
f 65//10 34//10 66//10
f 32//11 68//11 67//11
f 34//11 32//11 67//11
f 30//12 69//12 68//12
f 32//12 30//12 68//12
f 28//13 70//13 69//13
f 30//13 28//13 69//13
f 26//14 71//14 70//14
f 28//14 26//14 70//14
f 24//15 72//15 71//15
f 26//15 24//15 71//15
f 22//16 73//16 72//16
f 24//16 22//16 72//16
f 74//17 75//17 73//17
f 22//17 74//17 73//17
f 18//18 76//18 75//18
f 74//18 18//18 75//18
f 16//19 77//19 76//19
f 18//19 16//19 76//19
f 14//20 78//20 77//20
f 16//20 14//20 77//20
f 12//21 79//21 78//21
f 14//21 12//21 78//21
f 10//22 80//22 79//22
f 12//22 10//22 79//22
f 8//23 81//23 80//23
f 10//23 8//23 80//23
f 6//24 82//24 81//24
f 8//24 6//24 81//24
f 83//25 84//25 82//25
f 6//25 83//25 82//25
f 85//26 86//26 55//26
f 85//26 55//26 87//26
f 86//27 88//27 53//27
f 86//27 53//27 55//27
f 88//28 89//28 51//28
f 88//28 51//28 53//28
f 89//29 90//29 49//29
f 89//29 49//29 51//29
f 90//30 91//30 47//30
f 90//30 47//30 49//30
f 91//31 92//31 45//31
f 91//31 45//31 47//31
f 92//32 93//32 43//32
f 92//32 43//32 45//32
f 93//33 94//33 41//33
f 93//33 41//33 43//33
f 94//34 95//34 39//34
f 94//34 39//34 41//34
f 95//35 96//35 37//35
f 95//35 37//35 39//35
f 96//36 97//36 35//36
f 96//36 35//36 37//36
f 97//37 98//37 33//37
f 97//37 33//37 35//37
f 98//38 99//38 31//38
f 98//38 31//38 33//38
f 99//39 100//39 29//39
f 99//39 29//39 31//39
f 100//40 101//40 27//40
f 100//40 27//40 29//40
f 101//41 102//41 25//41
f 101//41 25//41 27//41
f 102//42 103//42 23//42
f 102//42 23//42 25//42
f 103//43 104//43 21//43
f 103//43 21//43 23//43
f 104//44 105//44 19//44
f 104//44 19//44 21//44
f 105//45 106//45 17//45
f 105//45 17//45 19//45
f 106//46 107//46 15//46
f 106//46 15//46 17//46
f 107//47 108//47 13//47
f 107//47 13//47 15//47
f 108//48 109//48 11//48
f 108//48 11//48 13//48
f 109//49 110//49 9//49
f 109//49 9//49 11//49
f 110//50 111//50 7//50
f 110//50 7//50 9//50
f 111//51 112//51 5//51
f 111//51 5//51 7//51
f 112//52 113//52 3//52
f 112//52 3//52 5//52
f 113//53 114//53 1//53
f 113//53 1//53 3//53
f 114//54 115//54 116//54
f 114//54 116//54 1//54
f 117//55 118//55 119//55
f 117//55 119//55 120//55
f 118//56 121//56 122//56
f 118//56 122//56 119//56
f 121//57 123//57 124//57
f 121//57 124//57 122//57
f 123//58 125//58 126//58
f 123//58 126//58 124//58
f 125//59 127//59 128//59
f 125//59 128//59 126//59
f 127//60 129//60 130//60
f 127//60 130//60 128//60
f 129//61 131//61 132//61
f 129//61 132//61 130//61
f 133//62 134//62 135//62
f 133//62 135//62 136//62
f 134//63 137//63 138//63
f 134//63 138//63 135//63
f 139//64 140//64 141//64
f 142//64 139//64 141//64
f 143//65 144//65 140//65
f 139//65 143//65 140//65
f 145//66 146//66 144//66
f 143//66 145//66 144//66
f 147//67 148//67 146//67
f 145//67 147//67 146//67
f 149//68 150//68 148//68
f 147//68 149//68 148//68
f 151//69 152//69 150//69
f 149//69 151//69 150//69
f 153//70 154//70 152//70
f 151//70 153//70 152//70
f 155//71 156//71 154//71
f 153//71 155//71 154//71
f 157//72 158//72 156//72
f 155//72 157//72 156//72
f 159//73 160//73 158//73
f 157//73 159//73 158//73
f 84//74 161//74 82//74
f 161//74 134//74 82//74
f 82//74 134//74 81//74
f 134//74 133//74 81//74
f 81//74 133//74 80//74
f 133//74 162//74 80//74
f 80//74 162//74 79//74
f 162//74 163//74 79//74
f 79//74 163//74 78//74
f 163//74 164//74 78//74
f 78//74 164//74 77//74
f 164//74 165//74 77//74
f 77//74 165//74 76//74
f 165//74 166//74 76//74
f 76//74 166//74 167//74
f 166//74 168//74 167//74
f 167//74 169//74 73//74
f 169//74 170//74 73//74
f 73//74 170//74 72//74
f 170//74 171//74 72//74
f 72//74 171//74 71//74
f 171//74 172//74 71//74
f 71//74 172//74 70//74
f 172//74 173//74 70//74
f 70//74 173//74 69//74
f 173//74 174//74 69//74
f 69//74 174//74 68//74
f 174//74 175//74 68//74
f 68//74 175//74 67//74
f 175//74 176//74 67//74
f 176//74 177//74 67//74
f 177//74 178//74 67//74
f 178//74 179//74 67//74
f 169//74 167//74 180//74
f 167//74 168//74 180//74
f 168//74 181//74 180//74
f 180//74 181//74 182//74
f 181//74 183//74 182//74
f 182//74 183//74 184//74
f 183//74 185//74 184//74
f 184//74 185//74 186//74
f 185//74 187//74 186//74
f 186//74 187//74 188//74
f 187//74 189//74 188//74
f 188//74 189//74 190//74
f 189//74 191//74 190//74
f 190//74 191//74 192//74
f 191//74 193//74 192//74
f 192//74 193//74 194//74
f 193//74 195//74 194//74
f 194//74 195//74 196//74
f 195//74 197//74 196//74
f 196//74 197//74 179//74
f 197//74 198//74 179//74
f 179//74 198//74 67//74
f 198//74 199//74 67//74
f 67//74 199//74 200//74
f 199//74 201//74 200//74
f 200//74 201//74 64//74
f 201//74 202//74 64//74
f 64//74 202//74 63//74
f 202//74 203//74 63//74
f 63//74 203//74 62//74
f 203//74 131//74 62//74
f 62//74 131//74 61//74
f 131//74 129//74 61//74
f 61//74 129//74 60//74
f 129//74 127//74 60//74
f 60//74 127//74 59//74
f 127//74 125//74 59//74
f 59//74 125//74 56//74
f 125//74 123//74 56//74
f 56//74 123//74 204//74
f 123//74 150//74 204//74
f 204//74 158//74 205//74
f 158//74 204//74 156//74
f 204//74 154//74 156//74
f 154//74 204//74 152//74
f 204//74 150//74 152//74
f 150//74 123//74 148//74
f 123//74 121//74 148//74
f 148//74 121//74 146//74
f 121//74 118//74 146//74
f 146//74 118//74 144//74
f 118//74 206//74 144//74
f 144//74 206//74 140//74
f 206//74 207//74 140//74
f 135//1 208//1 136//1
f 208//1 115//1 136//1
f 136//1 115//1 209//1
f 115//75 114//75 209//75
f 209//1 114//1 210//1
f 114//1 113//1 210//1
f 210//1 113//1 211//1
f 113//1 112//1 211//1
f 211//1 112//1 212//1
f 112//1 111//1 212//1
f 212//1 111//1 213//1
f 111//1 110//1 213//1
f 213//1 110//1 214//1
f 110//1 109//1 214//1
f 214//1 109//1 215//1
f 109//1 108//1 215//1
f 215//1 216//1 217//1
f 216//1 218//1 217//1
f 217//1 218//1 219//1
f 218//1 220//1 219//1
f 219//1 220//1 221//1
f 220//1 222//1 221//1
f 221//1 222//1 223//1
f 222//1 224//1 223//1
f 223//1 224//1 225//1
f 224//1 226//1 225//1
f 225//1 226//1 227//1
f 226//1 228//1 227//1
f 227//1 228//1 229//1
f 228//1 230//1 229//1
f 229//1 230//1 231//1
f 230//1 232//1 231//1
f 231//1 232//1 233//1
f 232//1 234//1 233//1
f 233//1 234//1 235//1
f 234//1 236//1 235//1
f 235//1 236//1 237//1
f 236//1 238//1 237//1
f 237//1 238//1 239//1
f 238//1 240//1 239//1
f 239//1 240//1 241//1
f 240//1 242//1 241//1
f 241//1 95//1 132//1
f 95//1 94//1 132//1
f 132//1 94//1 130//1
f 94//1 93//1 130//1
f 130//1 93//1 128//1
f 93//1 92//1 128//1
f 128//1 92//1 126//1
f 92//1 91//1 126//1
f 126//1 91//1 124//1
f 91//1 90//1 124//1
f 124//1 90//1 122//1
f 90//1 89//1 122//1
f 122//1 147//1 119//1
f 147//1 145//1 119//1
f 119//1 145//1 243//1
f 145//1 143//1 243//1
f 243//1 139//1 244//1
f 139//1 243//1 143//1
f 147//1 122//1 149//1
f 122//1 89//1 149//1
f 89//1 88//1 149//1
f 149//1 88//1 151//1
f 88//1 86//1 151//1
f 151//1 86//1 153//1
f 86//1 245//1 153//1
f 153//1 245//1 155//1
f 245//1 157//1 155//1
f 157//1 245//1 246//1
f 95//1 241//1 96//1
f 241//1 97//1 96//1
f 97//1 241//1 98//1
f 241//1 242//1 98//1
f 98//1 242//1 99//1
f 242//1 247//1 99//1
f 99//1 247//1 100//1
f 247//1 248//1 100//1
f 100//1 248//1 101//1
f 248//1 249//1 101//1
f 101//1 249//1 102//1
f 249//1 250//1 102//1
f 102//1 250//1 103//1
f 250//1 251//1 103//1
f 103//1 251//1 104//1
f 216//1 215//1 252//1
f 215//1 108//1 252//1
f 108//1 107//1 252//1
f 252//1 107//1 251//1
f 107//1 106//1 251//1
f 251//1 105//1 104//1
f 105//1 251//1 106//1
f 205//76 246//76 204//76
f 246//76 245//76 204//76
f 204//76 245//76 52//76
f 245//76 54//76 52//76
f 253//76 254//76 255//76
f 253//76 255//76 256//76
f 2//77 115//77 4//77
f 208//77 161//77 115//77
f 161//77 84//77 115//77
f 84//77 4//77 115//77
f 132//78 131//78 203//78
f 132//78 203//78 241//78
f 209//79 162//79 133//79
f 209//79 133//79 136//79
f 198//80 197//80 231//80
f 198//80 231//80 233//80
f 197//81 195//81 229//81
f 197//81 229//81 231//81
f 195//82 193//82 227//82
f 195//82 227//82 229//82
f 193//83 191//83 225//83
f 193//83 225//83 227//83
f 191//84 189//84 223//84
f 191//84 223//84 225//84
f 189//85 187//85 221//85
f 189//85 221//85 223//85
f 187//86 185//86 219//86
f 187//86 219//86 221//86
f 185//87 183//87 217//87
f 185//87 217//87 219//87
f 183//88 181//88 215//88
f 183//88 215//88 217//88
f 181//89 168//89 214//89
f 181//89 214//89 215//89
f 168//90 166//90 213//90
f 168//90 213//90 214//90
f 166//91 165//91 212//91
f 166//91 212//91 213//91
f 165//92 164//92 211//92
f 165//92 211//92 212//92
f 164//93 163//93 210//93
f 164//93 210//93 211//93
f 163//94 162//94 209//94
f 163//94 209//94 210//94
f 235//95 199//95 198//95
f 235//95 198//95 233//95
f 203//96 202//96 239//96
f 203//96 239//96 241//96
f 202//97 201//97 237//97
f 202//97 237//97 239//97
f 201//98 199//98 235//98
f 201//98 235//98 237//98
f 242//64 174//64 173//64
f 247//64 242//64 173//64
f 240//65 175//65 174//65
f 242//65 240//65 174//65
f 238//66 176//66 175//66
f 240//66 238//66 175//66
f 236//67 177//67 176//67
f 238//67 236//67 176//67
f 234//68 178//68 177//68
f 236//68 234//68 177//68
f 232//69 179//69 178//69
f 234//69 232//69 178//69
f 230//70 196//70 179//70
f 232//70 230//70 179//70
f 228//71 194//71 196//71
f 230//71 228//71 196//71
f 226//72 192//72 194//72
f 228//72 226//72 194//72
f 224//73 190//73 192//73
f 226//73 224//73 192//73
f 222//99 188//99 190//99
f 224//99 222//99 190//99
f 220//100 186//100 188//100
f 222//100 220//100 188//100
f 218//101 184//101 186//101
f 220//101 218//101 186//101
f 216//102 182//102 184//102
f 218//102 216//102 184//102
f 252//103 180//103 182//103
f 216//103 252//103 182//103
f 251//104 169//104 180//104
f 252//104 251//104 180//104
f 250//105 170//105 169//105
f 251//105 250//105 169//105
f 249//40 171//40 170//40
f 250//40 249//40 170//40
f 248//106 172//106 171//106
f 249//106 248//106 171//106
f 257//107 258//107 172//107
f 248//107 257//107 172//107
