# Blender v3.1.2 OBJ File: ''
# www.blender.org
mtllib 3.mtl
o 19
v 6.244946 3.746967 4.161804
v 5.050777 3.746967 5.330283
v 6.244946 3.746967 6.908665
v 5.277637 3.746967 5.642530
v 4.683709 3.746967 6.460006
v 0.000000 3.746967 6.908665
v 4.316641 3.746967 6.340737
v 0.967307 3.746967 6.028490
v 0.000000 3.746967 4.161804
v 0.967307 3.746967 5.642530
v 1.561236 3.746967 5.211017
v 1.928305 3.746967 5.330283
v 4.683709 3.746967 5.211017
v 4.316641 3.746967 5.330283
v 4.089780 3.746967 5.642530
v 2.155166 3.746967 5.642530
v 4.089780 3.746967 6.028490
v 2.155166 3.746967 6.028490
v 1.928305 3.746967 6.340737
v 1.561236 3.746967 6.460006
v 1.194168 3.746967 6.340737
v 1.194168 3.746967 5.330283
v 5.050777 3.746967 6.340737
v 5.277637 3.746967 6.028490
v 6.244946 -0.000000 7.845407
v 5.277637 -0.000000 6.028490
v 6.244946 -0.000000 -9.328194
v 5.277637 -0.000000 5.642530
v 4.876687 -0.000000 -8.059911
v 0.000000 0.000000 -9.328194
v 4.490731 -0.000000 -8.059911
v 0.936742 -0.000000 -7.465982
v 0.000000 0.000000 7.845407
v 1.056010 0.000000 -7.098913
v 1.561236 -0.000000 6.460006
v 1.928305 -0.000000 6.340737
v 5.050777 -0.000000 6.340737
v 4.683709 -0.000000 6.460006
v 5.188935 -0.000000 -7.833051
v 1.194168 -0.000000 6.340737
v 0.967307 -0.000000 6.028490
v 4.316641 -0.000000 6.340737
v 4.089780 -0.000000 6.028490
v 2.155166 -0.000000 6.028490
v 4.089780 -0.000000 5.642530
v 2.155166 -0.000000 5.642530
v 4.316641 -0.000000 5.330283
v 1.928305 -0.000000 5.330283
v 4.683709 -0.000000 5.211017
v 1.561236 -0.000000 5.211017
v 0.967307 -0.000000 5.642530
v 1.194168 -0.000000 5.330283
v 1.368257 -0.000000 -6.872054
v 1.754216 -0.000000 -6.872054
v 2.066463 -0.000000 -7.098913
v 5.050777 -0.000000 5.330283
v 2.185731 -0.000000 -7.465982
v 1.056010 0.000000 -7.833051
v 1.368257 0.000000 -8.059911
v 1.754216 0.000000 -8.059911
v 4.178484 -0.000000 -7.833051
v 2.066463 -0.000000 -7.833051
v 4.059215 -0.000000 -7.465982
v 4.178484 -0.000000 -7.098913
v 4.490731 -0.000000 -6.872054
v 5.188935 -0.000000 -7.098913
v 5.308204 -0.000000 -7.465982
v 4.876687 -0.000000 -6.872054
v 1.194168 -0.000000 5.330283
v 0.967307 -0.000000 5.642530
v 0.967307 -0.000000 6.028490
v 1.194168 -0.000000 6.340737
v 1.561236 -0.000000 6.460006
v 1.928305 -0.000000 6.340737
v 2.155166 -0.000000 6.028490
v 2.155166 -0.000000 5.642530
v 1.928305 -0.000000 5.330283
v 4.316641 -0.000000 5.330283
v 4.089780 -0.000000 5.642530
v 4.089780 -0.000000 6.028490
v 4.316641 -0.000000 6.340737
v 4.683709 -0.000000 6.460006
v 5.050777 -0.000000 6.340737
v 5.277637 -0.000000 6.028490
v 5.277637 -0.000000 5.642530
v 5.050777 -0.000000 5.330283
v 0.000000 11.674429 -8.346635
v 0.000000 11.553149 -7.185350
v 0.000000 12.033032 -9.457805
v 0.000000 3.746967 -8.391452
v 0.000000 3.621469 -8.859823
v 0.000000 3.746967 -2.648597
v 0.000000 3.278596 -9.202695
v 0.000000 2.810225 -9.328194
v 0.000000 3.800608 -2.336156
v 0.000000 2.810225 7.845407
v 0.000000 3.955389 -2.059499
v 0.000000 3.278596 7.719908
v 0.000000 4.656603 -1.399417
v 0.000000 3.872466 3.693433
v 0.000000 5.508920 -0.951124
v 0.000000 4.215338 3.350563
v 0.000000 6.450132 -0.747339
v 0.000000 4.683709 3.225062
v 0.000000 7.411549 -0.802936
v 0.000000 8.086352 3.225062
v 0.000000 8.322995 -1.113856
v 0.000000 8.725706 3.151365
v 0.000000 9.117955 -1.657408
v 0.000000 9.331526 2.934144
v 0.000000 9.738405 -2.393919
v 0.000000 20.111572 -2.393919
v 0.000000 10.642918 -3.822047
v 0.000000 16.684412 -3.313034
v 0.000000 10.867861 -4.256920
v 0.000000 15.736776 -3.556346
v 0.000000 11.013911 -4.724236
v 0.000000 14.879419 -4.027681
v 0.000000 14.166216 -4.697426
v 0.000000 13.641977 -5.523495
v 0.000000 13.339643 -6.453983
v 0.000000 12.613487 -10.470901
v 0.000000 13.278213 -7.430427
v 0.000000 13.390743 -11.342204
v 0.000000 13.461539 -8.391471
v 0.000000 14.331251 -12.034113
v 0.000000 13.878111 -9.276730
v 0.000000 15.394424 -12.516767
v 0.000000 14.501751 -10.030578
v 0.000000 16.534384 -12.769334
v 0.000000 15.293272 -10.605654
v 0.000000 17.701925 -12.780915
v 0.000000 16.202942 -10.965816
v 0.000000 18.846670 -12.551010
v 0.000000 17.173599 -11.088441
v 0.000000 19.919209 -12.089540
v 0.000000 18.144258 -10.965816
v 0.000000 20.873259 -11.416426
v 0.000000 19.053928 -10.605654
v 0.000000 21.667641 -10.560709
v 0.000000 19.845449 -10.030578
v 0.000000 22.268078 -9.559325
v 0.000000 20.469090 -9.276730
v 0.000000 22.648657 -8.455487
v 0.000000 20.885660 -8.391471
v 0.000000 22.792946 -7.296838
v 0.000000 21.068987 -7.430427
v 0.000000 22.694725 -6.133373
v 0.000000 21.007555 -6.453983
v 0.000000 22.358231 -5.015309
v 0.000000 20.705223 -5.523495
v 0.000000 21.797987 -3.990898
v 0.000000 20.180984 -4.697426
v 0.000000 21.038170 -3.104348
v 0.000000 19.467781 -4.027681
v 0.000000 18.610424 -3.556346
v 0.000000 17.662788 -3.313034
v 0.000000 3.621469 7.377036
v 6.244946 3.621469 7.377036
v 6.244946 3.278596 7.719908
v 6.244946 2.810225 7.845407
v 6.244946 11.674429 -8.346635
v 6.244946 12.033032 -9.457805
v 6.244946 11.553149 -7.185350
v 6.244946 12.613487 -10.470901
v 6.244946 11.013911 -4.724236
v 6.244946 13.390743 -11.342204
v 6.244946 10.867861 -4.256920
v 6.244946 14.331251 -12.034113
v 6.244946 15.394424 -12.516767
v 6.244946 13.878111 -9.276730
v 6.244946 10.642918 -3.822047
v 6.244946 13.461539 -8.391471
v 6.244946 13.278213 -7.430427
v 6.244946 13.339643 -6.453983
v 6.244946 9.738405 -2.393919
v 6.244946 13.641977 -5.523495
v 6.244946 9.117955 -1.657408
v 6.244946 14.166216 -4.697426
v 6.244946 8.322995 -1.113856
v 6.244946 14.879419 -4.027681
v 6.244946 15.736776 -3.556346
v 6.244946 16.684412 -3.313034
v 6.244946 7.411549 -0.802936
v 6.244946 17.662788 -3.313034
v 6.244946 14.501751 -10.030578
v 6.244946 16.534384 -12.769334
v 6.244946 15.293272 -10.605654
v 6.244946 17.701925 -12.780915
v 6.244946 16.202942 -10.965816
v 6.244946 18.846670 -12.551010
v 6.244946 17.173599 -11.088441
v 6.244946 19.919209 -12.089540
v 6.244946 18.144258 -10.965816
v 6.244946 20.873259 -11.416426
v 6.244946 19.053928 -10.605654
v 6.244946 21.667641 -10.560709
v 6.244946 19.845449 -10.030578
v 6.244946 22.268078 -9.559325
v 6.244946 20.469090 -9.276730
v 6.244946 22.648657 -8.455487
v 6.244946 20.885660 -8.391471
v 6.244946 22.792946 -7.296838
v 6.244946 21.068987 -7.430427
v 6.244946 22.694725 -6.133373
v 6.244946 21.007555 -6.453983
v 6.244946 22.358231 -5.015309
v 6.244946 20.705223 -5.523495
v 6.244946 21.797987 -3.990898
v 6.244946 20.180984 -4.697426
v 6.244946 21.038170 -3.104348
v 6.244946 19.467781 -4.027681
v 6.244946 20.111572 -2.393919
v 6.244946 18.610424 -3.556346
v 6.244946 9.331526 2.934144
v 6.244946 8.725706 3.151365
v 6.244946 8.086352 3.225062
v 6.244946 6.450132 -0.747339
v 6.244946 4.683709 3.225062
v 6.244946 5.508920 -0.951124
v 6.244946 4.215338 3.350563
v 6.244946 4.656603 -1.399417
v 6.244946 3.872466 3.693433
v 6.244946 3.955389 -2.059499
v 6.244946 3.800608 -2.336156
v 6.244946 3.746967 -2.648597
v 6.244946 3.746967 -8.391452
v 6.244946 3.621469 -8.859823
v 6.244946 3.278596 -9.202695
v 6.244946 2.810225 -9.328194
v 1.056010 3.746967 -7.098913
v 1.056010 -0.000000 -7.098913
v 0.936742 3.746967 -7.465982
v 1.368257 3.746967 -6.872054
v 1.368257 -0.000000 -6.872054
v 1.754216 3.746967 -6.872054
v 1.754216 -0.000000 -6.872054
v 2.066463 3.746967 -7.098913
v 2.066463 -0.000000 -7.098913
v 2.185731 3.746967 -7.465982
v 2.185731 -0.000000 -7.465982
v 2.066463 3.746967 -7.833051
v 2.066463 -0.000000 -7.833051
v 1.754216 3.746967 -8.059911
v 1.754216 -0.000000 -8.059911
v 1.368257 3.746967 -8.059911
v 1.368257 -0.000000 -8.059911
v 1.056010 3.746967 -7.833051
v 1.056010 -0.000000 -7.833051
v 4.178484 3.746967 -7.098913
v 4.178484 -0.000000 -7.098913
v 4.059215 3.746967 -7.465982
v 4.490731 3.746967 -6.872054
v 4.490731 -0.000000 -6.872054
v 4.876687 3.746967 -6.872054
v 4.876687 -0.000000 -6.872054
v 5.188935 3.746967 -7.098913
v 5.188935 -0.000000 -7.098913
v 5.308204 3.746967 -7.465982
v 5.308204 -0.000000 -7.465982
v 5.188935 3.746967 -7.833051
v 5.188935 -0.000000 -7.833051
v 4.876687 3.746967 -8.059911
v 4.876687 -0.000000 -8.059911
v 4.490731 3.746967 -8.059911
v 4.490731 -0.000000 -8.059911
v 4.178484 3.746967 -7.833051
v 4.178484 -0.000000 -7.833051
vn 0.0000 1.0000 0.0000
vn 0.0000 -1.0000 -0.0000
vn 0.3090 0.0000 0.9511
vn 0.8090 0.0000 0.5878
vn 1.0000 0.0000 0.0000
vn 0.8090 0.0000 -0.5878
vn 0.3090 0.0000 -0.9511
vn -0.3090 0.0000 -0.9511
vn -0.8090 0.0000 -0.5878
vn -1.0000 0.0000 0.0000
vn -0.8090 0.0000 0.5878
vn -0.3090 0.0000 0.9511
vn 0.0000 0.9659 0.2588
vn 0.0000 0.7071 0.7071
vn 0.0000 0.2588 0.9659
vn 0.0000 0.0000 -1.0000
vn 0.0000 0.0000 1.0000
vn 0.9511 0.0000 -0.3090
vn 0.5878 0.0000 -0.8090
vn -0.5878 0.0000 -0.8090
vn -0.9511 0.0000 -0.3090
vn -0.9511 0.0000 0.3090
vn -0.5878 0.0000 0.8090
vn 0.5878 0.0000 0.8090
vn 0.9511 0.0000 0.3090
vn 0.0000 -0.9768 -0.2140
vn 0.0000 -0.8882 -0.4594
vn 0.0000 -0.9545 -0.2983
vn 0.0000 -0.8448 -0.5351
vn 0.0000 0.6854 -0.7281
vn 0.0000 0.4655 -0.8850
vn 0.0000 0.2116 -0.9774
vn 0.0000 -0.0577 -0.9983
vn 0.0000 -0.3229 -0.9464
vn 0.0000 -0.5644 -0.8255
vn 0.0000 -0.7648 -0.6443
vn 0.0000 0.9856 -0.1692
vn 0.0000 0.8727 -0.4883
vn 0.0000 0.2588 -0.9659
vn 0.0000 0.7071 -0.7071
vn 0.0000 0.9659 -0.2588
vn 0.0000 0.3375 0.9413
vn 0.0000 0.1145 0.9934
vn 0.0000 0.4431 0.8965
vn 0.0000 -0.9946 -0.1039
vn 0.0000 -0.9517 -0.3071
vn 0.0000 -0.8677 -0.4971
vn 0.0000 -0.7462 -0.6657
vn 0.0000 -0.5926 -0.8055
vn 0.0000 -0.4134 -0.9106
vn 0.0000 -0.2163 -0.9763
vn 0.0000 -0.0099 -1.0000
vn 0.0000 0.1969 -0.9804
vn 0.0000 0.3952 -0.9186
vn 0.0000 0.5765 -0.8171
vn 0.0000 0.7329 -0.6804
vn 0.0000 0.8576 -0.5142
vn 0.0000 0.9454 -0.3259
vn 0.0000 0.9454 -0.3260
vn 0.0000 0.9923 -0.1236
vn 0.0000 0.9965 0.0841
vn 0.0000 0.9576 0.2882
vn 0.0000 0.8774 0.4798
vn 0.0000 0.7593 0.6508
vn 0.0000 0.7593 0.6507
vn 0.0000 0.6085 0.7936
vn 0.0000 -0.1253 0.9921
vn 0.0000 -0.3681 0.9298
vn 0.0000 -0.5878 0.8090
vn 0.0000 -0.7705 0.6374
vn 0.0000 -0.9048 0.4258
vn 0.0000 -0.9823 0.1874
vn 0.0000 -0.9980 -0.0628
vn 0.0000 -0.9511 -0.3090
vn 0.0000 -0.8443 -0.5358
vn 0.0000 -0.6845 -0.7290
vn 0.0000 -0.4818 -0.8763
vn 0.0000 -0.2487 -0.9686
vn 0.0000 0.2487 -0.9686
vn 0.0000 0.4818 -0.8763
vn 0.0000 0.6845 -0.7290
vn 0.0000 0.8443 -0.5358
vn 0.0000 0.9511 -0.3090
vn 0.0000 0.9980 -0.0628
vn 0.0000 0.9823 0.1874
vn 0.0000 0.9048 0.4258
vn 0.0000 0.7705 0.6374
vn 0.0000 0.5878 0.8090
vn 0.0000 0.3681 0.9298
vn 0.0000 0.1253 0.9921
usemtl None
s off
f 1//1 2//1 3//1
f 2//1 4//1 3//1
f 3//1 5//1 6//1
f 5//1 7//1 6//1
f 6//1 8//1 9//1
f 8//1 10//1 9//1
f 9//1 11//1 1//1
f 11//1 12//1 1//1
f 1//1 13//1 2//1
f 13//1 1//1 14//1
f 1//1 12//1 14//1
f 14//1 12//1 15//1
f 12//1 16//1 15//1
f 15//1 16//1 17//1
f 16//1 18//1 17//1
f 17//1 18//1 7//1
f 18//1 19//1 7//1
f 7//1 20//1 6//1
f 20//1 21//1 6//1
f 11//1 9//1 22//1
f 9//1 10//1 22//1
f 8//1 6//1 21//1
f 5//1 3//1 23//1
f 3//1 24//1 23//1
f 24//1 3//1 4//1
f 20//1 7//1 19//1
f 25//2 26//2 27//2
f 26//2 28//2 27//2
f 27//2 29//2 30//2
f 29//2 31//2 30//2
f 30//2 32//2 33//2
f 32//2 34//2 33//2
f 33//2 35//2 25//2
f 35//2 36//2 25//2
f 25//2 37//2 26//2
f 37//2 25//2 38//2
f 29//2 27//2 39//2
f 40//2 33//2 41//2
f 35//2 33//2 40//2
f 38//2 25//2 42//2
f 25//2 36//2 42//2
f 42//2 36//2 43//2
f 36//2 44//2 43//2
f 43//2 44//2 45//2
f 44//2 46//2 45//2
f 45//2 46//2 47//2
f 46//2 48//2 47//2
f 47//2 48//2 49//2
f 48//2 50//2 49//2
f 41//2 33//2 51//2
f 33//2 34//2 51//2
f 51//2 34//2 52//2
f 34//2 53//2 52//2
f 52//2 53//2 50//2
f 53//2 54//2 50//2
f 50//2 54//2 49//2
f 54//2 55//2 49//2
f 49//2 55//2 56//2
f 55//2 57//2 56//2
f 56//2 57//2 28//2
f 32//2 30//2 58//2
f 58//2 30//2 59//2
f 30//2 60//2 59//2
f 30//2 31//2 60//2
f 31//2 61//2 60//2
f 60//2 61//2 62//2
f 61//2 63//2 62//2
f 62//2 63//2 57//2
f 63//2 64//2 57//2
f 57//2 64//2 28//2
f 64//2 65//2 28//2
f 28//2 66//2 27//2
f 66//2 67//2 27//2
f 27//2 67//2 39//2
f 66//2 28//2 68//2
f 28//2 65//2 68//2
f 22//3 69//3 50//3
f 11//3 22//3 50//3
f 10//4 70//4 69//4
f 22//4 10//4 69//4
f 8//5 71//5 70//5
f 10//5 8//5 70//5
f 21//6 72//6 71//6
f 8//6 21//6 71//6
f 20//7 73//7 72//7
f 21//7 20//7 72//7
f 19//8 74//8 73//8
f 20//8 19//8 73//8
f 18//9 75//9 74//9
f 19//9 18//9 74//9
f 16//10 76//10 75//10
f 18//10 16//10 75//10
f 12//11 77//11 76//11
f 16//11 12//11 76//11
f 11//12 50//12 77//12
f 12//12 11//12 77//12
f 14//3 78//3 49//3
f 13//3 14//3 49//3
f 15//4 79//4 78//4
f 14//4 15//4 78//4
f 17//5 80//5 79//5
f 15//5 17//5 79//5
f 7//6 81//6 80//6
f 17//6 7//6 80//6
f 5//7 82//7 81//7
f 7//7 5//7 81//7
f 23//8 83//8 82//8
f 5//8 23//8 82//8
f 24//9 84//9 83//9
f 23//9 24//9 83//9
f 4//10 85//10 84//10
f 24//10 4//10 84//10
f 2//11 86//11 85//11
f 4//11 2//11 85//11
f 13//12 49//12 86//12
f 2//12 13//12 86//12
f 87//10 88//10 89//10
f 90//10 91//10 92//10
f 91//10 93//10 92//10
f 93//10 94//10 92//10
f 94//10 30//10 92//10
f 30//10 33//10 92//10
f 92//10 33//10 95//10
f 33//10 96//10 95//10
f 95//10 96//10 97//10
f 96//10 98//10 97//10
f 97//10 9//10 99//10
f 9//10 100//10 99//10
f 99//10 100//10 101//10
f 100//10 102//10 101//10
f 101//10 102//10 103//10
f 102//10 104//10 103//10
f 103//10 104//10 105//10
f 104//10 106//10 105//10
f 105//10 106//10 107//10
f 106//10 108//10 107//10
f 107//10 108//10 109//10
f 108//10 110//10 109//10
f 109//10 110//10 111//10
f 110//10 112//10 111//10
f 111//10 112//10 113//10
f 112//10 114//10 113//10
f 113//10 114//10 115//10
f 114//10 116//10 115//10
f 115//10 116//10 117//10
f 116//10 118//10 117//10
f 117//10 119//10 88//10
f 119//10 120//10 88//10
f 88//10 120//10 89//10
f 120//10 121//10 89//10
f 89//10 121//10 122//10
f 121//10 123//10 122//10
f 122//10 123//10 124//10
f 123//10 125//10 124//10
f 124//10 125//10 126//10
f 125//10 127//10 126//10
f 126//10 127//10 128//10
f 127//10 129//10 128//10
f 128//10 129//10 130//10
f 129//10 131//10 130//10
f 130//10 131//10 132//10
f 131//10 133//10 132//10
f 132//10 133//10 134//10
f 133//10 135//10 134//10
f 134//10 135//10 136//10
f 135//10 137//10 136//10
f 136//10 137//10 138//10
f 137//10 139//10 138//10
f 138//10 139//10 140//10
f 139//10 141//10 140//10
f 140//10 141//10 142//10
f 141//10 143//10 142//10
f 142//10 143//10 144//10
f 143//10 145//10 144//10
f 144//10 145//10 146//10
f 145//10 147//10 146//10
f 146//10 147//10 148//10
f 147//10 149//10 148//10
f 148//10 149//10 150//10
f 149//10 151//10 150//10
f 150//10 151//10 152//10
f 151//10 153//10 152//10
f 152//10 153//10 154//10
f 153//10 155//10 154//10
f 154//10 155//10 112//10
f 155//10 156//10 112//10
f 112//10 157//10 114//10
f 157//10 112//10 156//10
f 97//10 98//10 9//10
f 98//10 158//10 9//10
f 9//10 158//10 6//10
f 119//10 117//10 118//10
f 6//13 158//13 159//13
f 6//13 159//13 3//13
f 158//14 98//14 160//14
f 158//14 160//14 159//14
f 98//15 96//15 161//15
f 98//15 161//15 160//15
f 162//5 163//5 164//5
f 163//5 165//5 164//5
f 164//5 165//5 166//5
f 165//5 167//5 166//5
f 166//5 167//5 168//5
f 167//5 169//5 168//5
f 169//5 170//5 168//5
f 170//5 171//5 168//5
f 168//5 171//5 172//5
f 171//5 173//5 172//5
f 173//5 174//5 172//5
f 174//5 175//5 172//5
f 172//5 175//5 176//5
f 175//5 177//5 176//5
f 176//5 177//5 178//5
f 177//5 179//5 178//5
f 178//5 179//5 180//5
f 179//5 181//5 180//5
f 181//5 182//5 180//5
f 182//5 183//5 180//5
f 180//5 183//5 184//5
f 183//5 185//5 184//5
f 171//5 170//5 186//5
f 170//5 187//5 186//5
f 186//5 187//5 188//5
f 187//5 189//5 188//5
f 188//5 189//5 190//5
f 189//5 191//5 190//5
f 190//5 191//5 192//5
f 191//5 193//5 192//5
f 192//5 193//5 194//5
f 193//5 195//5 194//5
f 194//5 195//5 196//5
f 195//5 197//5 196//5
f 196//5 197//5 198//5
f 197//5 199//5 198//5
f 198//5 199//5 200//5
f 199//5 201//5 200//5
f 200//5 201//5 202//5
f 201//5 203//5 202//5
f 202//5 203//5 204//5
f 203//5 205//5 204//5
f 204//5 205//5 206//5
f 205//5 207//5 206//5
f 206//5 207//5 208//5
f 207//5 209//5 208//5
f 208//5 209//5 210//5
f 209//5 211//5 210//5
f 210//5 211//5 212//5
f 211//5 213//5 212//5
f 212//5 213//5 214//5
f 213//5 215//5 214//5
f 214//5 215//5 185//5
f 215//5 216//5 185//5
f 185//5 216//5 184//5
f 216//5 217//5 184//5
f 184//5 217//5 218//5
f 217//5 219//5 218//5
f 218//5 219//5 220//5
f 219//5 221//5 220//5
f 220//5 221//5 222//5
f 221//5 223//5 222//5
f 222//5 223//5 224//5
f 223//5 1//5 224//5
f 224//5 1//5 225//5
f 3//5 159//5 1//5
f 1//5 159//5 225//5
f 159//5 160//5 225//5
f 225//5 160//5 226//5
f 160//5 161//5 226//5
f 226//5 161//5 227//5
f 161//5 25//5 227//5
f 227//5 25//5 228//5
f 25//5 27//5 228//5
f 228//5 27//5 229//5
f 27//5 230//5 229//5
f 104//15 102//15 221//15
f 104//15 221//15 219//15
f 102//14 100//14 223//14
f 102//14 223//14 221//14
f 100//13 9//13 1//13
f 100//13 1//13 223//13
f 27//16 30//16 94//16
f 27//16 94//16 230//16
f 161//17 96//17 33//17
f 161//17 33//17 25//17
f 231//18 232//18 32//18
f 233//18 231//18 32//18
f 234//19 235//19 232//19
f 231//19 234//19 232//19
f 236//16 237//16 235//16
f 234//16 236//16 235//16
f 238//20 239//20 237//20
f 236//20 238//20 237//20
f 240//21 241//21 239//21
f 238//21 240//21 239//21
f 242//22 243//22 241//22
f 240//22 242//22 241//22
f 244//23 245//23 243//23
f 242//23 244//23 243//23
f 246//17 247//17 245//17
f 244//17 246//17 245//17
f 248//24 249//24 247//24
f 246//24 248//24 247//24
f 233//25 32//25 249//25
f 248//25 233//25 249//25
f 250//18 251//18 63//18
f 252//18 250//18 63//18
f 253//19 254//19 251//19
f 250//19 253//19 251//19
f 255//16 256//16 254//16
f 253//16 255//16 254//16
f 257//20 258//20 256//20
f 255//20 257//20 256//20
f 259//21 260//21 258//21
f 257//21 259//21 258//21
f 261//22 262//22 260//22
f 259//22 261//22 260//22
f 263//23 264//23 262//23
f 261//23 263//23 262//23
f 265//17 266//17 264//17
f 263//17 265//17 264//17
f 267//24 268//24 266//24
f 265//24 267//24 266//24
f 252//25 63//25 268//25
f 267//25 252//25 268//25
f 166//26 117//26 88//26
f 166//26 88//26 164//26
f 113//27 115//27 168//27
f 113//27 168//27 172//27
f 115//28 117//28 166//28
f 115//28 166//28 168//28
f 176//29 111//29 113//29
f 176//29 113//29 172//29
f 97//30 99//30 222//30
f 97//30 222//30 224//30
f 99//31 101//31 220//31
f 99//31 220//31 222//31
f 101//32 103//32 218//32
f 101//32 218//32 220//32
f 103//33 105//33 184//33
f 103//33 184//33 218//33
f 105//34 107//34 180//34
f 105//34 180//34 184//34
f 107//35 109//35 178//35
f 107//35 178//35 180//35
f 109//36 111//36 176//36
f 109//36 176//36 178//36
f 92//37 95//37 225//37
f 92//37 225//37 226//37
f 95//38 97//38 224//38
f 95//38 224//38 225//38
f 227//1 259//1 226//1
f 259//1 257//1 226//1
f 226//1 257//1 92//1
f 257//1 255//1 92//1
f 92//1 231//1 90//1
f 231//1 233//1 90//1
f 90//1 246//1 227//1
f 246//1 244//1 227//1
f 227//1 263//1 261//1
f 263//1 227//1 265//1
f 227//1 244//1 265//1
f 265//1 244//1 267//1
f 244//1 242//1 267//1
f 267//1 242//1 252//1
f 242//1 240//1 252//1
f 252//1 240//1 250//1
f 240//1 238//1 250//1
f 250//1 238//1 253//1
f 238//1 236//1 253//1
f 234//1 92//1 236//1
f 92//1 253//1 236//1
f 246//1 90//1 248//1
f 90//1 233//1 248//1
f 231//1 92//1 234//1
f 259//1 227//1 261//1
f 253//1 92//1 255//1
f 94//39 93//39 229//39
f 94//39 229//39 230//39
f 93//40 91//40 228//40
f 93//40 228//40 229//40
f 91//41 90//41 227//41
f 91//41 227//41 228//41
f 217//17 106//17 104//17
f 217//17 104//17 219//17
f 110//42 108//42 216//42
f 110//42 216//42 215//42
f 108//43 106//43 217//43
f 108//43 217//43 216//43
f 213//44 112//44 110//44
f 213//44 110//44 215//44
f 88//45 87//45 162//45
f 88//45 162//45 164//45
f 87//46 89//46 163//46
f 87//46 163//46 162//46
f 89//47 122//47 165//47
f 89//47 165//47 163//47
f 122//48 124//48 167//48
f 122//48 167//48 165//48
f 124//49 126//49 169//49
f 124//49 169//49 167//49
f 126//50 128//50 170//50
f 126//50 170//50 169//50
f 128//51 130//51 187//51
f 128//51 187//51 170//51
f 130//52 132//52 189//52
f 130//52 189//52 187//52
f 132//53 134//53 191//53
f 132//53 191//53 189//53
f 134//54 136//54 193//54
f 134//54 193//54 191//54
f 136//55 138//55 195//55
f 136//55 195//55 193//55
f 138//56 140//56 197//56
f 138//56 197//56 195//56
f 140//57 142//57 199//57
f 140//57 199//57 197//57
f 142//58 144//58 201//58
f 142//59 201//59 199//59
f 144//60 146//60 203//60
f 144//60 203//60 201//60
f 146//61 148//61 205//61
f 146//61 205//61 203//61
f 148//62 150//62 207//62
f 148//62 207//62 205//62
f 150//63 152//63 209//63
f 150//63 209//63 207//63
f 152//64 154//64 211//64
f 152//65 211//65 209//65
f 154//66 112//66 213//66
f 154//66 213//66 211//66
f 194//67 137//67 135//67
f 192//67 194//67 135//67
f 196//68 139//68 137//68
f 194//68 196//68 137//68
f 198//69 141//69 139//69
f 196//69 198//69 139//69
f 200//70 143//70 141//70
f 198//70 200//70 141//70
f 202//71 145//71 143//71
f 200//71 202//71 143//71
f 204//72 147//72 145//72
f 202//72 204//72 145//72
f 206//73 149//73 147//73
f 204//73 206//73 147//73
f 208//74 151//74 149//74
f 206//74 208//74 149//74
f 210//75 153//75 151//75
f 208//75 210//75 151//75
f 212//76 155//76 153//76
f 210//76 212//76 153//76
f 214//77 156//77 155//77
f 212//77 214//77 155//77
f 185//78 157//78 156//78
f 214//78 185//78 156//78
f 183//16 114//16 157//16
f 185//16 183//16 157//16
f 182//79 116//79 114//79
f 183//79 182//79 114//79
f 181//80 118//80 116//80
f 182//80 181//80 116//80
f 179//81 119//81 118//81
f 181//81 179//81 118//81
f 177//82 120//82 119//82
f 179//82 177//82 119//82
f 175//83 121//83 120//83
f 177//83 175//83 120//83
f 174//84 123//84 121//84
f 175//84 174//84 121//84
f 173//85 125//85 123//85
f 174//85 173//85 123//85
f 171//86 127//86 125//86
f 173//86 171//86 125//86
f 186//87 129//87 127//87
f 171//87 186//87 127//87
f 188//88 131//88 129//88
f 186//88 188//88 129//88
f 190//89 133//89 131//89
f 188//89 190//89 131//89
f 192//90 135//90 133//90
f 190//90 192//90 133//90
